<svg xmlns="http://www.w3.org/2000/svg" viewBox="0 0 64 64">
  <defs>
    <linearGradient id="fireOuter" x1="0" y1="0" x2="1" y2="1">
      <stop offset="0%" stop-color="#fde68a"/>
      <stop offset="45%" stop-color="#fb923c"/>
      <stop offset="100%" stop-color="#dc2626"/>
    </linearGradient>
    <linearGradient id="fireInner" x1="0" y1="0" x2="1" y2="1">
      <stop offset="0%" stop-color="#fff7cc"/>
      <stop offset="55%" stop-color="#fbbf24"/>
      <stop offset="100%" stop-color="#f97316"/>
    </linearGradient>
  </defs>
  <g transform="translate(8 6)">
    <path d="M24 2c2.6 5.6-.9 9.9-.9 14.2 0 3.4 2.5 5.6 5.6 5.6 4.5 0 7.4-3.3 7.4-8 4.9 4.3 7.9 10.1 7.9 16.3C44 39.5 36.1 46 24.9 46 14.1 46 6 39.2 6 29.6c0-8.7 5.1-15.7 12.7-21.3.8 4.8 3.2 8.4 6.8 8.4 3.1 0 5.1-2.3 5.1-5.2 0-2.8-1.1-5.6-2.6-9.5Z" fill="url(#fireOuter)"/>
    <path d="M24.8 14.6c1.3 3-.8 5.7-.8 8.4 0 2.3 1.7 3.9 4 3.9 3 0 5.2-2.3 5.2-5.4 3.3 2.9 5.3 6.9 5.3 11.1 0 6.6-5.4 11.8-13.2 11.8-7.5 0-12.7-5.1-12.7-11.7 0-5.9 3.5-10.9 8.6-14.8.7 3.2 2.2 5.4 4.7 5.4 2.1 0 3.5-1.5 3.5-3.5 0-1.7-.7-3.3-1.9-5.2Z" fill="url(#fireInner)"/>
  </g>
</svg>
